<?xml version="1.0" standalone="no"?>
<!DOCTYPE svg PUBLIC "-//W3C//DTD SVG 20010904//EN"
 "http://www.w3.org/TR/2001/REC-SVG-20010904/DTD/svg10.dtd">
<svg version="1.0" xmlns="http://www.w3.org/2000/svg"
 width="512.000000pt" height="512.000000pt" viewBox="0 0 512.000000 512.000000"
 preserveAspectRatio="xMidYMid meet">
<metadata>
Created by potrace 1.14, written by Peter Selinger 2001-2017
</metadata>
<g transform="translate(0.000000,512.000000) scale(0.100000,-0.100000)"
fill="#000000" stroke="none">
<path d="M390 5104 c-30 -8 -80 -26 -110 -41 -72 -35 -188 -151 -223 -223 -61
-126 -57 23 -57 -2280 0 -2303 -4 -2154 57 -2280 35 -72 151 -188 223 -223
126 -61 -23 -57 2280 -57 2303 0 2154 -4 2280 57 72 35 188 151 223 223 61
126 57 -23 57 2280 0 2303 4 2154 -57 2280 -35 72 -151 188 -223 223 -127 61
23 57 -2285 56 -1816 0 -2118 -2 -2165 -15z m3178 -1068 c425 -55 598 -171
660 -439 25 -109 24 -708 -1 -822 -67 -306 -250 -427 -762 -502 -94 -14 -261
-17 -1162 -20 l-1053 -4 0 -595 0 -594 -185 0 -185 0 0 1501 0 1500 1278 -4
c1142 -3 1291 -5 1410 -21z"/>
<path d="M1250 3154 l0 -595 1078 4 c1160 5 1163 5 1326 58 91 30 157 89 186
167 38 102 50 525 18 692 -19 103 -76 169 -176 204 -153 54 -416 65 -1594 66
l-838 0 0 -596z"/>
</g>
</svg>
